<svg xmlns="http://www.w3.org/2000/svg" viewBox="0 0 100 100" width="100" height="100">
  <defs>
    <radialGradient id="bg2" cx="50%" cy="40%" r="60%"><stop offset="0%" stop-color="#302408"/><stop offset="100%" stop-color="#080a04"/></radialGradient>
    <linearGradient id="skin2" x1="0" y1="0" x2="0" y2="1"><stop offset="0%" stop-color="#788c42"/><stop offset="100%" stop-color="#425424"/></linearGradient>
  </defs>
  <rect width="100" height="100" fill="url(#bg2)" rx="12"/>
  <path d="M10,95 Q50,70 90,95 L90,100 L10,100 Z" fill="#261c10" stroke="#ffaa00" stroke-width="1.5"/>
  <path d="M30,85 L50,95 L70,85 L65,72 L50,78 L35,72 Z" fill="#3d2c18" stroke="#ffaa00" stroke-width="1"/>
  <polygon points="50,10 40,24 50,20 60,24" fill="#c49a38" stroke="#ffaa00" stroke-width="1"/>
  <polygon points="36,18 28,32 38,28" fill="#9e7a25"/>
  <polygon points="64,18 72,32 62,28" fill="#9e7a25"/>
  <path d="M30,36 Q26,62 50,68 Q74,62 70,36 Q70,22 50,20 Q30,22 30,36 Z" fill="url(#skin2)" stroke="#263314" stroke-width="1.5"/>
  <path d="M48,22 L50,64 L52,22 Z" fill="#2d3b19" opacity="0.5"/>
  <ellipse cx="40" cy="38" rx="5" ry="3" fill="#ffaa00"/>
  <ellipse cx="60" cy="38" rx="5" ry="3" fill="#ffaa00"/>
  <line x1="40" y1="35" x2="40" y2="41" stroke="#000000" stroke-width="1.8" stroke-linecap="round"/>
  <line x1="60" y1="35" x2="60" y2="41" stroke="#000000" stroke-width="1.8" stroke-linecap="round"/>
  <path d="M46,46 L50,42 L54,46" stroke="#243012" stroke-width="2" fill="none"/>
  <path d="M38,56 Q50,60 62,56" stroke="#1c260e" stroke-width="2.5" fill="none"/>
  <polygon points="42,56 44,53 46,56" fill="#ffffff"/>
  <polygon points="54,56 56,53 58,56" fill="#ffffff"/>
</svg>